<svg width="20" height="20" viewBox="0 0 20 20" fill="none" xmlns="http://www.w3.org/2000/svg">
<path d="M18.8499 10C18.8499 14.8877 14.8876 18.85 9.9999 18.85C5.11218 18.85 1.1499 14.8877 1.1499 10C1.1499 5.1123 5.11218 1.15002 9.9999 1.15002C14.8876 1.15002 18.8499 5.1123 18.8499 10ZM9.88157 5.97753C9.2832 5.57862 8.51384 5.54142 7.87978 5.88076C7.24572 6.2201 6.8499 6.88088 6.8499 7.60003V12.4C6.8499 13.1192 7.24572 13.78 7.87978 14.1193C8.51384 14.4586 9.2832 14.4214 9.88157 14.0225L13.4816 11.6225C14.0241 11.2609 14.3499 10.652 14.3499 10C14.3499 9.34804 14.0241 8.73919 13.4816 8.37753L9.88157 5.97753Z" fill="#2332DD" stroke="#2332DD" stroke-width="1.5"/>
</svg>
