<svg width="32" height="32" viewBox="0 0 32 32" fill="none" xmlns="http://www.w3.org/2000/svg">
<path d="M0.799805 2.70005C0.799805 1.65071 1.65046 0.800049 2.6998 0.800049H6.79026C7.71906 0.800049 8.51172 1.47153 8.66441 2.38769L10.0691 10.8159C10.2062 11.6386 9.79071 12.4546 9.04466 12.8276L6.1032 14.2984C8.22417 19.5689 12.431 23.7757 17.7015 25.8967L19.1722 22.9552C19.5453 22.2091 20.3612 21.7936 21.184 21.9307L29.6122 23.3354C30.5283 23.4881 31.1998 24.2808 31.1998 25.2096V29.3001C31.1998 30.3494 30.3491 31.2001 29.2998 31.2001H25.4998C11.8584 31.2001 0.799805 20.1415 0.799805 6.50005V2.70005Z" fill="black"/>
</svg>
