<svg width="20" height="20" viewBox="0 0 20 20" fill="none" xmlns="http://www.w3.org/2000/svg">
<path d="M0.399902 1.60039C0.399902 0.937649 0.937161 0.400391 1.5999 0.400391H4.18335C4.76996 0.400391 5.27059 0.824486 5.36702 1.40311L6.2542 6.72616C6.3408 7.2458 6.07837 7.76116 5.60718 7.99675L3.74941 8.92564C5.08897 12.2544 7.74592 14.9113 11.0747 16.2509L12.0035 14.3931C12.2391 13.9219 12.7545 13.6595 13.2741 13.7461L18.5972 14.6333C19.1758 14.7297 19.5999 15.2303 19.5999 15.8169V18.4004C19.5999 19.0631 19.0626 19.6004 18.3999 19.6004H15.9999C7.38426 19.6004 0.399902 12.616 0.399902 4.00039V1.60039Z" fill="#ABFB4F"/>
</svg>
