<svg width="28" height="28" viewBox="0 0 28 28" fill="none" xmlns="http://www.w3.org/2000/svg">
<path fill-rule="evenodd" clip-rule="evenodd" d="M14.0004 27.5999C21.5115 27.5999 27.6004 21.511 27.6004 13.9999C27.6004 6.48883 21.5115 0.399902 14.0004 0.399902C6.48932 0.399902 0.400391 6.48883 0.400391 13.9999C0.400391 21.511 6.48932 27.5999 14.0004 27.5999ZM20.3025 11.802C20.9664 11.1381 20.9664 10.0617 20.3025 9.39782C19.6386 8.73393 18.5622 8.73393 17.8983 9.39782L12.3004 14.9957L10.1025 12.7978C9.43858 12.1339 8.3622 12.1339 7.69831 12.7978C7.03442 13.4617 7.03442 14.5381 7.69831 15.202L11.0983 18.602C11.7622 19.2659 12.8386 19.2659 13.5025 18.602L20.3025 11.802Z" fill="#2332DD"/>
</svg>
