<svg width="120" height="24" viewBox="0 0 120 24" fill="none" xmlns="http://www.w3.org/2000/svg">
<path d="M29 22.8182V19.8139L39.6001 5.28267H29.0107V1H46.2692V4.00426L35.669 18.5355H46.2585V22.8182H29Z" fill="black"/>
<path d="M60.052 15.755V6.45455H65.2509V22.8182H60.2864V19.7713H60.1159C59.7537 20.7727 59.1358 21.5682 58.2623 22.1577C57.3958 22.7401 56.3482 23.0312 55.1195 23.0312C54.0044 23.0312 53.0243 22.7756 52.1792 22.2642C51.334 21.7528 50.677 21.0391 50.2083 20.1229C49.7395 19.1996 49.5016 18.12 49.4945 16.8842V6.45455H54.704V15.8615C54.7111 16.7493 54.9455 17.4489 55.4071 17.9602C55.8688 18.4716 56.4973 18.7273 57.2928 18.7273C57.8113 18.7273 58.2765 18.6136 58.6884 18.3864C59.1074 18.152 59.4377 17.8146 59.6792 17.3743C59.9277 16.9268 60.052 16.3871 60.052 15.755Z" fill="black"/>
<path d="M68.5668 22.8182V1H73.7763V9.25639H73.8828C74.0959 8.75923 74.3977 8.27983 74.7884 7.81818C75.1861 7.35653 75.6903 6.98011 76.3011 6.68892C76.919 6.39063 77.6577 6.24148 78.517 6.24148C79.6534 6.24148 80.7152 6.53977 81.7024 7.13636C82.6967 7.73295 83.4993 8.6527 84.1101 9.8956C84.7209 11.1385 85.0263 12.7223 85.0263 14.647C85.0263 16.5007 84.7315 18.0526 84.142 19.3026C83.5597 20.5526 82.7713 21.4901 81.777 22.1151C80.7898 22.7401 79.6925 23.0526 78.4851 23.0526C77.6612 23.0526 76.9474 22.9176 76.3438 22.6477C75.7401 22.3778 75.2322 22.0227 74.8203 21.5824C74.4155 21.142 74.103 20.6697 73.8828 20.1655H73.723V22.8182H68.5668ZM73.6697 14.6364C73.6697 15.517 73.7869 16.2841 74.0213 16.9375C74.2628 17.5909 74.6072 18.0987 75.0547 18.4609C75.5092 18.8161 76.0526 18.9936 76.6847 18.9936C77.3239 18.9936 77.8672 18.8161 78.3146 18.4609C78.7621 18.0987 79.0994 17.5909 79.3267 16.9375C79.5611 16.2841 79.6783 15.517 79.6783 14.6364C79.6783 13.7557 79.5611 12.9922 79.3267 12.3459C79.0994 11.6996 78.7621 11.1989 78.3146 10.8438C77.8743 10.4886 77.331 10.3111 76.6847 10.3111C76.0455 10.3111 75.5021 10.4851 75.0547 10.8331C74.6072 11.1811 74.2628 11.6783 74.0213 12.3246C73.7869 12.9709 73.6697 13.7415 73.6697 14.6364Z" fill="black"/>
<path d="M92.3691 23.0952C91.3251 23.0952 90.3983 22.9212 89.5886 22.5732C88.786 22.218 88.1504 21.6854 87.6816 20.9751C87.22 20.2578 86.9892 19.3594 86.9892 18.2798C86.9892 17.3707 87.149 16.6037 87.4686 15.9787C87.7882 15.3537 88.2285 14.8459 88.7896 14.4553C89.3507 14.0646 89.997 13.7699 90.7285 13.571C91.46 13.3651 92.2413 13.2266 93.0723 13.1555C94.0027 13.0703 94.752 12.9815 95.3201 12.8892C95.8883 12.7898 96.3002 12.6513 96.5559 12.4737C96.8187 12.2891 96.9501 12.0298 96.9501 11.696V11.6428C96.9501 11.0959 96.7619 10.6733 96.3855 10.375C96.0091 10.0767 95.5012 9.92756 94.862 9.92756C94.1731 9.92756 93.6191 10.0767 93.2001 10.375C92.7811 10.6733 92.5147 11.0852 92.4011 11.6108L87.5964 11.4403C87.7385 10.446 88.1042 9.55824 88.6937 8.77699C89.2903 7.98864 90.1071 7.37074 91.144 6.9233C92.188 6.46875 93.4416 6.24148 94.9047 6.24148C95.9487 6.24148 96.911 6.36577 97.7917 6.61435C98.6724 6.85582 99.4395 7.21094 100.093 7.67969C100.746 8.14134 101.251 8.70952 101.606 9.38423C101.968 10.0589 102.149 10.8295 102.149 11.696V22.8182H97.2484V20.5384H97.1206C96.8294 21.0923 96.4565 21.5611 96.002 21.9446C95.5545 22.3281 95.0254 22.6158 94.4146 22.8075C93.8109 22.9993 93.1291 23.0952 92.3691 23.0952ZM93.9778 19.6861C94.5389 19.6861 95.0432 19.5724 95.4906 19.3452C95.9451 19.1179 96.3074 18.8054 96.5772 18.4077C96.8471 18.0028 96.9821 17.5341 96.9821 17.0014V15.446C96.8329 15.5241 96.6518 15.5952 96.4387 15.6591C96.2328 15.723 96.0055 15.7834 95.7569 15.8402C95.5083 15.897 95.2527 15.9467 94.9899 15.9893C94.7271 16.032 94.475 16.071 94.2335 16.1065C93.7434 16.1847 93.3244 16.3054 92.9764 16.4688C92.6355 16.6321 92.3727 16.8452 92.188 17.108C92.0105 17.3636 91.9217 17.669 91.9217 18.0241C91.9217 18.5639 92.1135 18.9759 92.497 19.2599C92.8876 19.544 93.3812 19.6861 93.9778 19.6861Z" fill="black"/>
<path d="M105.377 22.8182V19.8459L112.962 10.6094V10.5028H105.643V6.45455H119.173V9.71449L112.142 18.6634V18.7699H119.429V22.8182H105.377Z" fill="black"/>
<path fill-rule="evenodd" clip-rule="evenodd" d="M0 12C5.05631e-07 5.37258 5.37258 0 12 0C18.6274 0 24 5.37258 24 12C17.3736 12 12.0016 6.629 12 0.0028711C11.9984 6.629 6.62645 12 0 12ZM12 24C12 17.3725 17.3726 12 24 12C24 18.6274 18.6274 24 12 24ZM12 24C12 17.3725 6.62742 12 0 12C0 18.6274 5.37258 24 12 24Z" fill="#2332DD"/>
</svg>
